<svg height="24" viewBox="0 0 24 24" width="24" xmlns="http://www.w3.org/2000/svg"><path d="m10.0007 0c2.649 0 5.199 1.05 7.069 2.93 1.88 1.881 2.931 4.42 2.931 7.08 0 3.5-1.841 6.75-4.841 8.56s-6.73 1.91-9.829.26h-.031c-.299-.12-.54-.33-.82-.47-.309-.13-.66-.15-.979-.049-.741.259-1.491.469-2.261.649-.4.01-.52-.23-.52-.62.18-.79.42-1.571.701-2.33.109-.33.08-.68-.09-.991l-.2-.389c-.741-1.41-1.13-2.98-1.13-4.569v-.061c0-2.65 1.049-5.2 2.929-7.07 1.88-1.88 4.42-2.93 7.071-2.93zm4.609 8.73c-.7 0-1.279.57-1.279 1.28 0 .7.579 1.28 1.279 1.28.71 0 1.28-.58 1.28-1.28 0-.71-.57-1.28-1.28-1.28zm-4.609 0c-.71 0-1.281.57-1.281 1.28 0 .7.571 1.28 1.281 1.28s1.279-.58 1.279-1.28c0-.71-.569-1.28-1.279-1.28zm-4.611 0c-.71 0-1.28.57-1.28 1.28 0 .7.57 1.28 1.28 1.28.7 0 1.281-.58 1.281-1.28 0-.71-.581-1.28-1.281-1.28z" fill="#200e32" transform="translate(2 2)"/></svg>