<svg height="24" viewBox="0 0 24 24" width="24" xmlns="http://www.w3.org/2000/svg"><path d="m4.4495 1.6781c3.96-2.64 9.239-2.119 12.62 1.24 1.889 1.891 2.939 4.45 2.9290708 7.12-.0190708 4.76-3.4000708 8.85-8.0700708 9.771-4.68.92-9.359-1.591-11.17-6-1.82-4.401-.279-9.481 3.691-12.131zm9.049 4.57c-.129-.06-.28-.08-.419-.03l-4.941 1.56c-.17.05-.3.19-.349.36l-1.571 4.94c-.03.1-.03.21 0 .31.04.14.141.26.271.33.139.08.29.091.429.05l4.941-1.56c.17-.05.3-.18.359-.35l1.55-4.94c.041-.109.041-.23 0-.34-.039-.14-.14-.26-.27-.33z" fill="#200e32" transform="translate(2 2)"/></svg>