<svg height="24" viewBox="0 0 24 24" width="24" xmlns="http://www.w3.org/2000/svg"><path d="m6.28001656 0c.63.01915967 1.24.12915967 1.831.33015967h.059c.04.019.07.04.09.059.221.071.43.151.63.261l.38.17c.15.08.33.229.43.29.1.059.21.12.30000004.189 1.111-.849 2.46-1.309 3.85-1.29915967.631 0 1.261.08915967 1.86.29015967 3.691 1.2 5.021 5.25 3.91 8.79-.63 1.80900003-1.66 3.46000003-3.009 4.80900003-1.931 1.87-4.05 3.53-6.331 4.96l-.25.151-.26000004-.161c-2.289-1.42-4.42-3.08-6.369-4.96-1.34-1.349-2.371-2.99-3.011-4.79900003-1.13-3.54.2-7.59 3.931-8.811.29-.1.589-.17.889-.209h.12c.281-.041.56-.06015967.84-.06015967zm8.91000004 3.16015967c-.41-.141-.86.08-1.01.5-.14.42.08.88.5 1.029.641.24 1.07.871 1.07 1.57v.031c-.019.229.05.45.19.62s.35.269.57.29c.41-.011.76-.34.79-.761v-.119c.03-1.401-.819-2.67-2.11-3.16z" fill="#200e32" transform="translate(1.999783 2.50054)"/></svg>