<svg height="24" viewBox="0 0 24 24" width="24" xmlns="http://www.w3.org/2000/svg"><path d="m6.63477851 18.7733424v-3.0577263c0-.7805494.63739292-1.4133096 1.42365693-1.4133096h2.87417526c.3775773 0 .73969.1489018 1.0066775.4139488.2669875.2650469.4169795.6245278.4169795.9993608v3.0577263c-.0023861.3245067.1257982.6365364.3561031.8668363s.5436786.3598213.8705698.3598213h1.960886c.9158098.0023499 1.7949256-.3571558 2.4433426-.9991923.6484169-.6420365 1.0128308-1.5138273 1.0128308-2.4229839v-8.71096462c0-.73439871-.3279306-1.43101687-.8953817-1.90219023l-6.6705938-5.28879993c-1.1603641-.92730732-2.82291173-.89736693-3.94863336.07110991l-6.51837889 5.21769002c-.59427157.45728359-.94945996 1.15596748-.96701225 1.90219023v8.70207582c0 1.8949185 1.54738155 3.431065 3.45617342 3.431065h1.91611687c.67893638 0 1.23070694-.5437848 1.23562677-1.2177689z" fill="#200e32" transform="translate(2.5 2)"/></svg>