<svg height="24" viewBox="0 0 24 24" width="24" xmlns="http://www.w3.org/2000/svg"><path d="m5.84846399 13.5498221c1.43966919-.1160211 2.88595898-.1160211 4.32562821 0 .7839775.0457004 1.5642364.143772 2.3358392.2935943 1.6696924.3380783 2.7597507.8896797 3.2269186 1.7793594.3508667.6943562.3508667 1.5209463 0 2.2153025-.4671679.8896797-1.5139699 1.4768683-3.2442211 1.7793594-.7709977.1554701-1.5514314.2565363-2.3358393.3024911-.72670549.0800712-1.45341102.0800712-2.18876781.0800712h-1.32364221c-.27684021-.0355872-.54502915-.0533808-.80456684-.0533808-.78443383-.0403494-1.56504679-.1384656-2.33583921-.2935943-1.66969247-.3202847-2.75975077-.8896797-3.22691861-1.7793594-.18034372-.3446371-.27542084-.7296285-.2769507-1.1209965-.00364853-.3937532.08855324-.7822038.26829945-1.1298932.45851658-.8896797 1.54857488-1.4679715 3.23556986-1.7793594.77418902-.1519625 1.55746361-.2500499 2.34449046-.2935943zm2.15416283-13.5498221c2.90021988 0 5.25131258 2.41782168 5.25131258 5.40035587s-2.3510927 5.40035583-5.25131258 5.40035583c-2.90021986 0-5.25131259-2.41782164-5.25131259-5.40035583s2.35109273-5.40035587 5.25131259-5.40035587z" fill="#200e32" transform="translate(4 2)"/></svg>