<svg height="24" viewBox="0 0 24 24" width="24" xmlns="http://www.w3.org/2000/svg"><path d="m15.6207067 15.6542822c.3865241-.3839052 1.0061226-.3839052 1.3926467 0l2.5546642 2.0621334h.0443518c.5168408.5224015.5168408 1.3693817 0 1.8917833-.5168409.5224015-1.3548055.5224015-1.8716463 0l-2.1200164-2.4297311-.080449-.0907711c-.1498607-.1896948-.2326271-.4261852-.2326271-.6713217 0-.2859926.1126543-.5602169.3130761-.7620928zm-7.04306709-15.6542822c2.27493149 0 4.45668769.91343602 6.06530709 2.53936255 1.6086195 1.62592654 2.5123325 3.83115616 2.5123325 6.13056351 0 4.78826794-3.84034 8.66992604-8.57763959 8.66992604-4.73729955 0-8.57763961-3.8816581-8.57763961-8.66992604s3.84034006-8.66992606 8.57763961-8.66992606z" fill="#200e32" transform="translate(2 2)"/></svg>