<svg height="24" viewBox="0 0 24 24" width="24" xmlns="http://www.w3.org/2000/svg"><path d="m10.2143.0004c.55-.01 1.071.189 1.46.57.391.369.6.88.6 1.42 0 1.1.91 1.991 2.041 1.991.349 0 .699-.101 1.01-.271.969-.521 2.179-.19 2.729.74l.681 1.17c.17.3.269.64.269.99 0 .71-.389 1.371-1.019 1.72-.311.17-.571.43-.75.731-.531.939-.2 2.128.75 2.67.959.549 1.289 1.75.75 2.699l-.681 1.131c-.36.619-1.03 1-1.75 1-.36 0-.72-.091-1.019-.271-.321-.17-.67-.27-1.021-.27-.54 0-1.06.211-1.439.59-.391.371-.601.88-.601 1.41 0 1.09-.909 1.98-2.04 1.98h-1.369c-.541 0-1.051-.22-1.421-.59-.38-.38-.579-.88-.579-1.4 0-1.1-.901-1.99-2.03-1.99-.371 0-.731.1-1.041.291-.47.259-1.03.329-1.55.199-.52-.14-.97-.48-1.24-.93l-.639-1.13c-.301-.469-.391-1.03-.25-1.56.139-.53.5-.98.989-1.25.311-.17.57-.42.75-.73.521-.94.19-2.12-.75-2.67-.95-.54-1.28-1.73-.739-2.67l.639-1.12c.27-.469.72-.81 1.25-.95.531-.14 1.09-.061 1.56.21.32.17.67.26 1.021.26.54 0 1.059-.21 1.439-.58s.591-.88.591-1.4c0-1.1.909-1.99 2.039-1.99zm.401 7.481c-1.05-.431-2.261-.201-3.071.589-.8.78-1.05 1.97-.61 2.991.431 1.029 1.45 1.699 2.59 1.699h.011c.75.01 1.45-.279 1.979-.8.53-.51.83-1.21.83-1.94.01-1.11-.68-2.12-1.729-2.539z" fill="#200e32" transform="translate(2.5 2)"/></svg>